<svg id="Group_6" data-name="Group 6" xmlns="http://www.w3.org/2000/svg" width="83.995" height="83.994" viewBox="0 0 83.995 83.994">
  <path id="Path_2081" data-name="Path 2081" d="M1658.249,152.921c-26.343.055-45.473-18.756-45.305-42.33a41.99,41.99,0,0,1,83.487-6.08c2.018,14.059-2,26.194-11.939,36.227C1676.4,148.907,1666.368,152.783,1658.249,152.921Zm6.792-26.282c.909,1.208,1.76,2.337,2.607,3.469.266.356.6.685,1.046.462a5.209,5.209,0,0,1,1.731-.328,17.622,17.622,0,0,0,11.194-5.809,3,3,0,0,0,.926-2.424c-.135-1.283-.142-2.575-.242-3.864a56.763,56.763,0,0,0-4.146-17.234c-2.419-5.894-1.439-5.044-7.332-8.008a18.107,18.107,0,0,0-7.874-1.983c-.421-.007-.848.105-.925.52-.1.534.478.4.745.487a35.87,35.87,0,0,1,8.887,4.206c.286.191.742.277.725.838-11.908-5.758-23.836-5.2-35.794-.172a33.027,33.027,0,0,1,10.449-5.1c.272-.081.757-.032.7-.428-.059-.437-.489-.514-.919-.469a25.136,25.136,0,0,0-3.822.648,25.952,25.952,0,0,0-7.542,3.353c-.632.408-1.323.679-1.687,1.452a66.518,66.518,0,0,0-6.036,19.911,57.1,57.1,0,0,0-.481,6.486,1.556,1.556,0,0,0,.258,1.1,19.213,19.213,0,0,0,5.141,4.417,31.717,31.717,0,0,0,7.869,2.423,1.268,1.268,0,0,0,1.5-.408,32.528,32.528,0,0,1,2.234-2.759c.557-.619.65-.9-.3-1.189a14.947,14.947,0,0,1-5.522-3.147c-.471-.416-.887-.894-1.328-1.344,11.746,6.255,23.468,6.353,35.293.253A16.12,16.12,0,0,1,1665.041,126.639Z" transform="translate(-1612.943 -68.927)"/>
  <path id="Path_2082" data-name="Path 2082" d="M1670.286,142.167a4.859,4.859,0,0,1,4.792,4.938c-.1,3.035-1.922,5.376-4.832,5.4a5.1,5.1,0,0,1-4.85-5.27A4.985,4.985,0,0,1,1670.286,142.167Z" transform="translate(-1637.035 -102.566)"/>
  <path id="Path_2083" data-name="Path 2083" d="M1702.192,142.155a4.914,4.914,0,0,1,4.837,5.126,4.878,4.878,0,1,1-9.735.077C1697.4,143.844,1699.972,142.086,1702.192,142.155Z" transform="translate(-1651.684 -102.56)"/>
</svg>
