<svg xmlns="http://www.w3.org/2000/svg" width="86.069" height="83.995" viewBox="0 0 86.069 83.995">
  <path id="Path_2072" data-name="Path 2072" d="M1870.964-41.938c2.72-.693,5.193-1.119,7.52-1.954,8.029-2.883,11.174-9.179,11.708-17.218.324-4.876-.534-9.391-3.746-13.284-.319-.387-.183-1.175-.2-1.779-.1-2.915-.132-5.835-.3-8.747a1.62,1.62,0,0,0-2.34-1.579c-2.93,1.069-5.776,2.369-8.7,3.459a5.954,5.954,0,0,1-3.052.463,45.152,45.152,0,0,0-18.558.081,4.749,4.749,0,0,1-2.506-.4c-2.971-1.152-5.875-2.478-8.864-3.579a1.694,1.694,0,0,0-2.45,1.676,70.674,70.674,0,0,0-.275,8.176,4.21,4.21,0,0,1-.719,3.035c-5.954,8.259-3.727,22.192,4.48,27.671a23.46,23.46,0,0,0,5.518,2.514,53.216,53.216,0,0,0,5.625,1.292c-.658,1.713-1.284,3.476-2.03,5.185a2.164,2.164,0,0,1-1.162.9c-4.209,1.656-8.192.362-10.927-3.334a17.607,17.607,0,0,0-3.728-3.958c-1.022-.726-2.552-.791-3.879-1a1.558,1.558,0,0,0-1.226.648c-.135.2.159.958.458,1.14,3.322,2.036,4.752,5.412,6.544,8.634,1.949,3.5,5.584,4.047,9.246,4.05,1.418,0,2.836-.191,4.51-.314,0,2.749.1,5.3-.035,7.837-.093,1.745-1.5,2.558-3.341,1.732-3.514-1.578-7.2-3.012-10.3-5.225-13.76-9.816-20.232-23.454-18.3-40.153,2.012-17.427,11.764-29.721,28.378-35.708,25.677-9.252,52.787,7.3,56.894,34.361,3.018,19.888-9,40.058-27.725,46.549-3,1.039-4.021.33-4.029-2.836-.006-2.626.022-5.253.057-7.879C1873.555-35.172,1873.62-38.862,1870.964-41.938Z" transform="translate(-1819.597 104.26)"/>
</svg>
