<svg id="Group_4" data-name="Group 4" xmlns="http://www.w3.org/2000/svg" width="83.861" height="83.998" viewBox="0 0 83.861 83.998">
  <path id="Path_2073" data-name="Path 2073" d="M1656.421-97.708c23.681.172,42.006,19.042,41.8,43.039-.195,22.5-19.515,41.2-42.319,40.956-23.338-.245-41.708-19.182-41.54-42.822C1614.523-79.193,1633.607-97.874,1656.421-97.708Zm-.156,66.887v.009c5.5,0,10.991.05,16.486-.015,5.037-.059,8.535-3.426,8.577-8.468q.137-16.485,0-32.973c-.045-4.973-3.665-8.394-8.65-8.411q-16.351-.055-32.7,0c-5.028.015-8.653,3.335-8.71,8.35q-.191,16.62,0,33.242c.063,4.925,3.6,8.187,8.51,8.248C1645.274-30.768,1650.77-30.821,1656.266-30.821Z" transform="translate(-1614.36 97.709)"/>
  <path id="Path_2074" data-name="Path 2074" d="M1672.823-16.793c-5.311,0-10.622.024-15.933-.009-3.977-.024-6.209-2.131-6.235-6.156q-.107-16.067,0-32.136c.029-3.967,2.33-6.077,6.329-6.086q15.932-.036,31.865,0c4.117.009,6.355,2.176,6.374,6.32q.075,15.8,0,31.6c-.016,4.349-2.17,6.45-6.475,6.465C1683.445-16.778,1678.134-16.792,1672.823-16.793ZM1685.7-38.9a12.809,12.809,0,0,0-12.769-12.95,12.829,12.829,0,0,0-12.767,12.687,12.789,12.789,0,0,0,12.637,13.072A12.782,12.782,0,0,0,1685.7-38.9Zm6.583-18.224c-1.625-1.1-2.734-2.395-3.438-2.2-.979.267-1.653,1.647-2.458,2.55.877.714,1.727,1.944,2.639,1.992C1689.868-54.742,1690.773-55.97,1692.288-57.125Z" transform="translate(-1631.005 80.938)"/>
  <path id="Path_2075" data-name="Path 2075" d="M1693.42-28.656a10.175,10.175,0,0,1-10.1,10.114,10.186,10.186,0,0,1-9.959-10,10.1,10.1,0,0,1,9.973-10.229A10.108,10.108,0,0,1,1693.42-28.656Z" transform="translate(-1641.458 70.636)"/>
</svg>
