<svg xmlns="http://www.w3.org/2000/svg" width="83.881" height="83.855" viewBox="0 0 83.881 83.855">
  <path id="Path_2080" data-name="Path 2080" d="M1223.266,137.734a41.94,41.94,0,1,1,42.15,41.854A41.721,41.721,0,0,1,1223.266,137.734Zm55.9,29.014q.1-.324.2-.649c6.756.014,11.964-3.52,13.922-9.448.969-2.934.369-4.445-2.328-5.681-2.776-1.273-5.6-2.442-8.349-3.766-2.482-1.2-4.421-.989-5.835,1.627a33.172,33.172,0,0,1-2.051,2.841,3.593,3.593,0,0,1-4.861,1.431A36.156,36.156,0,0,1,1253.11,139.6c-2.331-3.383-2.4-3.43.367-6.526,1.973-2.206,2.45-4.4,1.026-7.116-1.374-2.617-2.3-5.476-3.764-8.037a7.042,7.042,0,0,0-3.3-2.8c-2.829-1.137-5.073.316-6.862,2.417-4.921,5.78-4.9,12.213-1.814,18.664,5.962,12.45,15.811,21.035,28.169,26.733C1270.781,164.705,1275.074,165.5,1279.161,166.747Zm-15.115-50.3v2.182c13.2,1.471,20.237,8.906,21.7,21.686,2,.58,2.71-.131,2.4-1.969-.164-.975-.3-1.956-.484-2.927C1285.557,124.394,1274.511,115.474,1264.046,116.452Zm18.15,22.082c-.323-9.743-8.859-17.9-17.824-16.382.943.992,1.464,2.058,2.163,2.193,7.693,1.481,11.748,5.556,13.01,13.29a8.407,8.407,0,0,0,.328,1.058Zm-15.617-9.791c.557.716.986,1.862,1.693,2.072a7.042,7.042,0,0,1,5.151,5.3c.11.409.261.807.414,1.272.76-.055,1.373-.079,1.979-.161.128-.017.227-.243.334-.377C1275.382,131.417,1272.375,128.452,1266.58,128.743Z" transform="translate(-1223.266 -95.733)"/>
</svg>
