<svg id="Group_5" data-name="Group 5" xmlns="http://www.w3.org/2000/svg" width="83.965" height="83.99" viewBox="0 0 83.965 83.99">
  <path id="Path_2077" data-name="Path 2077" d="M1069.525-97.708a41.9,41.9,0,0,1,41.931,42.11,42.01,42.01,0,0,1-41.947,41.88,42.2,42.2,0,0,1-42.017-42.16A42.1,42.1,0,0,1,1069.525-97.708Zm-.179,59.778c5.676,0,11.353.065,17.028-.02a8.605,8.605,0,0,0,8.7-8.767q.081-8.919,0-17.839a8.692,8.692,0,0,0-9.035-9.02q-16.487-.092-32.975,0a8.818,8.818,0,0,0-9.2,8.95c-.163,5.942-.17,11.9.01,17.837.162,5.355,3.912,8.816,9.256,8.858C1058.535-37.891,1063.94-37.924,1069.346-37.93Z" transform="translate(-1027.491 97.708)"/>
  <path id="Path_2078" data-name="Path 2078" d="M1089.454-18.38V-40.728l17.2,11.14Z" transform="translate(-1055.951 71.537)"/>
</svg>
